<svg xmlns="http://www.w3.org/2000/svg" width="180" height="40" viewBox="0 0 180 40">
  <defs>
    <linearGradient id="logoGradient" x1="0%" y1="0%" x2="100%" y2="100%">
      <stop offset="0%" style="stop-color:#6366f1;stop-opacity:1" />
      <stop offset="100%" style="stop-color:#9333ea;stop-opacity:1" />
    </linearGradient>
  </defs>
  
  <!-- Logo Box -->
  <rect x="0" y="4" width="32" height="32" rx="6" fill="url(#logoGradient)" />
  
  <!-- Brain Icon (exact from your HTML) -->
  <svg x="4" y="8" width="24" height="24" viewBox="0 0 24 24" fill="none" stroke="white" stroke-width="2" stroke-linecap="round" stroke-linejoin="round">
    <path d="M12 18V5"></path>
    <path d="M15 13a4.17 4.17 0 0 1-3-4 4.17 4.17 0 0 1-3 4"></path>
    <path d="M17.598 6.5A3 3 0 1 0 12 5a3 3 0 1 0-5.598 1.5"></path>
    <path d="M17.997 5.125a4 4 0 0 1 2.526 5.77"></path>
    <path d="M18 18a4 4 0 0 0 2-7.464"></path>
    <path d="M19.967 17.483A4 4 0 1 1 12 18a4 4 0 1 1-7.967-.517"></path>
    <path d="M6 18a4 4 0 0 1-2-7.464"></path>
    <path d="M6.003 5.125a4 4 0 0 0-2.526 5.77"></path>
  </svg>
  
  <!-- Text: MemoryX -->
  <text x="42" y="26" font-family="Inter, -apple-system, BlinkMacSystemFont, 'Segoe UI', Roboto, sans-serif" font-size="18" font-weight="700" fill="white" letter-spacing="-0.5">MemoryX</text>
</svg>
